# xmcd
#
# Track frame offsets:
#	150
#	12399
#	27339
#	43344
#	57944
#	76021
#	90189
#	100652
#	116072
#	131431
#	142262
#	154364
#
# Disc length: 2218 seconds
#
# Revision: 1
# Processed by: cddbd v1.5.2PL0 Copyright (c) Steve Scherf et al.
# Submitted via: audiograbber 1.83.01
#
DISCID=9908a80c
DTITLE=Benny Berry - Give Me A Good Country Song
DYEAR=1999
DGENRE=Country
TTITLE0=I´ll Get By
TTITLE1=Give Me A Good Country Song
TTITLE2=The Bad News Came To Late
TTITLE3=I Can Play Your Memory By Heart
TTITLE4=Family Man
TTITLE5=Was It Just A Dream
TTITLE6=Country Music King
TTITLE7=Whats Wrong Wits Being Treated Right
TTITLE8=Pain,pain, Go Away
TTITLE9=Little Old You
TTITLE10=The Healing Has Happend
TTITLE11=Where The Soul Never Dies
EXTD=
EXTT0=
EXTT1=
EXTT2=
EXTT3=
EXTT4=
EXTT5=
EXTT6=
EXTT7=
EXTT8=
EXTT9=
EXTT10=
EXTT11=
PLAYORDER=
